<svg width="219" height="134" viewBox="0 0 219 134" fill="none" xmlns="http://www.w3.org/2000/svg">
<path d="M217 29L217 101" stroke="black" stroke-width="2.3"/>
<path fill-rule="evenodd" clip-rule="evenodd" d="M99.6937 35.7747C99.2847 40.8019 99.1473 45.9028 99.2826 51.0772C98.0357 51.2294 96.9393 50.9539 95.9937 50.25C95.4547 44.5575 93.879 39.1809 91.2659 34.1204C90.1707 32.4011 89.0061 30.7468 87.7715 29.1574C89.1442 28.9502 90.1033 28.192 90.6493 26.8827C90.1477 25.9852 90.1477 25.0891 90.6493 24.1944C92.4947 25.4913 94.0705 25.2156 95.377 23.3673C96.4677 21.5878 96.9475 19.6577 96.8159 17.5771C97.9124 17.5771 99.0084 17.5771 100.105 17.5771C99.7965 23.6379 99.6596 29.7037 99.6937 35.7747Z" fill="white"/>
<path fill-rule="evenodd" clip-rule="evenodd" d="M90.6504 24.1946C90.1488 25.0893 90.1488 25.9854 90.6504 26.8828C90.1044 28.1921 89.1453 28.9503 87.7726 29.1575C78.7697 21.4269 68.3546 18.4629 56.5282 20.2655C47.9376 22.839 41.5654 28.1466 37.4115 36.1884C33.9132 43.0927 31.7891 50.3994 31.0393 58.1081C26.243 58.1081 21.4467 58.1081 16.6504 58.1081C19.4784 41.5629 28.1118 29.2245 42.5504 21.0927C50.8959 17.1474 59.6662 15.7688 68.8615 16.9569C76.6738 17.7167 83.9365 20.1292 90.6504 24.1946Z" fill="white"/>
<path fill-rule="evenodd" clip-rule="evenodd" d="M99.6941 35.7749C99.6941 41.0136 99.6941 46.2521 99.6941 51.491C98.4608 51.491 97.2275 51.491 95.9941 51.491C95.9941 51.0774 95.9941 50.6638 95.9941 50.2502C96.9397 50.9541 98.0361 51.2296 99.283 51.0774C99.1478 45.9031 99.2851 40.8021 99.6941 35.7749Z" fill="white"/>
<path fill-rule="evenodd" clip-rule="evenodd" d="M39.2605 66.7932C38.4271 66.7262 37.6048 66.7953 36.7938 67C37.4344 67.0869 37.9826 67.2937 38.4383 67.6204C37.7531 67.6204 37.0679 67.6204 36.3827 67.6204C35.9175 67.2672 35.3693 67.2672 34.7383 67.6204C35.0865 67.0141 35.6346 66.6692 36.3827 66.5864C37.4263 66.2572 38.3856 66.3263 39.2605 66.7932Z" fill="white"/>
<path fill-rule="evenodd" clip-rule="evenodd" d="M49.9509 66.3798C52.3037 65.9455 54.2224 66.635 55.7065 68.4477C55.4323 68.5854 55.1585 68.7235 54.8843 68.8613C53.9445 68.0597 52.848 67.6462 51.5954 67.6205C49.081 67.9059 47.985 69.3534 48.3065 71.9631C48.0278 75.9604 49.8091 77.477 53.6509 76.5125C55.1478 74.2481 54.5998 72.8697 52.0065 72.3767C53.1029 72.1008 54.199 72.1008 55.2954 72.3767C55.9396 73.9863 55.8023 75.5025 54.8843 76.9261C48.279 78.8265 45.6067 76.4136 46.8676 69.6884C47.7013 68.3683 48.7291 67.2653 49.9509 66.3798Z" fill="white"/>
<path fill-rule="evenodd" clip-rule="evenodd" d="M68.4494 71.756C68.516 72.5943 68.4474 73.4215 68.2439 74.2375C68.1296 73.8586 67.924 73.5832 67.6272 73.4103C67.2169 71.6907 66.6002 70.0363 65.7772 68.4474C65.5663 68.8721 65.3607 69.2857 65.1605 69.6881C64.9126 68.8088 64.9126 67.8439 65.1605 66.793C65.6489 66.3034 66.1287 66.3034 66.5994 66.793C67.1047 68.4974 67.7213 70.1517 68.4494 71.756Z" fill="white"/>
<path fill-rule="evenodd" clip-rule="evenodd" d="M39.2616 66.7933C40.603 66.8653 41.2884 67.5547 41.3171 68.8612C40.2736 68.6366 39.3143 68.2231 38.4394 67.6205C37.9836 67.2937 37.4355 67.0869 36.7949 67.0001C37.6059 66.7954 38.4281 66.7263 39.2616 66.7933Z" fill="white"/>
<path fill-rule="evenodd" clip-rule="evenodd" d="M76.2617 66.793C76.8097 66.793 77.3582 66.793 77.9062 66.793C77.9062 70.2393 77.9062 73.6861 77.9062 77.1325C79.8298 77.0638 81.748 77.1329 83.6617 77.3393C81.1988 77.5456 78.7321 77.6147 76.2617 77.5461C76.2617 73.9616 76.2617 70.3775 76.2617 66.793Z" fill="white"/>
<path fill-rule="evenodd" clip-rule="evenodd" d="M36.383 67.6204C35.5591 68.1055 34.9424 68.7949 34.533 69.6883C34.0939 71.867 34.368 73.9349 35.3552 75.892C37.2546 76.971 39.1731 76.971 41.1107 75.892C41.3163 76.0297 41.5218 76.1678 41.7274 76.3056C35.1399 79.1274 32.1937 76.9218 32.8885 69.6883C33.2979 68.7949 33.9146 68.1055 34.7385 67.6204C35.3696 67.2672 35.9177 67.2672 36.383 67.6204Z" fill="white"/>
<path fill-rule="evenodd" clip-rule="evenodd" d="M65.1619 66.793C64.914 67.8439 64.914 68.8088 65.1619 69.688C64.5867 71.0111 64.1756 72.3895 63.9286 73.8238C65.2495 73.952 66.4828 73.8143 67.6286 73.4103C67.9254 73.5831 68.1309 73.8586 68.2452 74.2374C68.4487 73.4214 68.5174 72.5943 68.4508 71.7559C69.6109 73.4615 70.2963 75.3917 70.5063 77.5461C69.9628 77.6164 69.4831 77.4786 69.0674 77.1325C68.8734 74.9397 67.7087 74.1125 65.573 74.651C63.582 74.3317 62.4856 75.1589 62.2841 77.1325C61.9285 77.5804 61.5174 77.649 61.0508 77.3393C62.2763 73.7118 63.6469 70.1963 65.1619 66.793Z" fill="white"/>
<path fill-rule="evenodd" clip-rule="evenodd" d="M99.6941 103.602C99.2851 98.4366 99.1478 93.1978 99.283 87.8857C98.3239 87.8857 97.3644 87.8857 96.4053 87.8857C96.5027 88.4197 96.3658 88.8333 95.9941 89.1265C95.9941 88.5752 95.9941 88.0235 95.9941 87.4722C97.2275 87.4722 98.4608 87.4722 99.6941 87.4722C99.6941 92.8487 99.6941 98.2253 99.6941 103.602Z" fill="white"/>
<path fill-rule="evenodd" clip-rule="evenodd" d="M95.9949 89.1265C96.3665 88.8333 96.5034 88.4197 96.406 87.8857C97.3651 87.8857 98.3247 87.8857 99.2838 87.8857C99.1485 93.1978 99.2858 98.4366 99.6949 103.602C99.6168 108.299 99.7541 112.986 100.106 117.664C100.106 119.318 100.106 120.972 100.106 122.626C99.0096 122.626 97.9135 122.626 96.8171 122.626C96.9466 121.026 96.8097 119.509 96.406 118.077C96.2987 115.635 95.2023 113.842 93.1171 112.701C88.6101 115.244 84.0879 117.795 79.5504 120.352C71.8943 123.486 63.9459 124.589 55.706 123.66C34.9334 120.203 22.189 108.14 17.4727 87.4722C22.269 87.4722 27.0652 87.4722 31.8615 87.4722C32.9662 94.1056 35.2274 100.309 38.6449 106.083C46.634 118.406 57.8027 123.024 72.1504 119.938C81.4095 118.196 88.1928 113.164 92.5004 104.843C94.14 99.7046 95.3046 94.4658 95.9949 89.1265Z" fill="white"/>
</svg>
