<?xml version="1.0" encoding="UTF-8" ?>
<!DOCTYPE svg PUBLIC "-//W3C//DTD SVG 1.1//EN" "http://www.w3.org/Graphics/SVG/1.1/DTD/svg11.dtd">
<svg width="1044pt" height="592pt" viewBox="0 0 1044 592" version="1.1" xmlns="http://www.w3.org/2000/svg">
<g id="#3a388aff">
<path fill="#3a388a" opacity="1.00" d=" M 0.00 0.00 L 0.41 0.00 C 0.31 0.10 0.10 0.31 0.00 0.41 L 0.00 0.00 Z" />
<path fill="#3a388a" opacity="1.00" d=" M 260.06 52.11 C 278.24 49.26 296.47 44.89 315.01 46.09 C 326.01 46.31 337.02 46.16 348.02 45.86 C 369.83 46.87 391.00 52.66 412.37 56.63 C 423.25 60.14 434.37 62.69 445.70 64.28 C 457.94 67.33 470.67 67.51 483.18 66.27 C 491.62 65.32 499.30 61.09 507.85 60.63 C 508.91 88.96 507.52 117.35 508.51 145.68 C 516.51 140.33 521.06 131.48 527.94 124.93 C 544.04 105.46 564.24 89.59 586.19 77.21 C 599.94 70.36 613.70 62.95 628.86 59.74 C 638.14 57.87 646.78 53.77 656.08 51.96 C 674.75 47.98 693.87 45.13 713.00 46.13 C 733.16 46.35 753.61 45.03 773.43 49.54 C 802.44 53.81 830.84 62.09 860.19 63.86 C 873.70 63.70 886.84 60.08 899.86 56.83 C 899.81 103.80 899.93 150.77 899.79 197.75 C 891.96 197.94 884.14 198.03 876.32 197.80 C 872.75 183.35 870.34 168.46 864.16 154.80 C 857.44 138.10 848.34 122.17 836.04 108.95 C 829.93 103.07 823.87 97.11 817.44 91.58 C 794.81 73.63 766.26 64.87 737.96 61.17 C 725.84 60.45 713.54 60.23 701.75 63.56 C 674.46 67.02 647.42 78.04 628.18 98.18 C 614.94 110.52 604.76 125.87 597.43 142.36 C 588.08 161.92 581.54 182.69 576.42 203.72 C 561.27 203.98 546.11 203.76 530.97 204.05 C 514.87 202.28 498.69 203.20 482.54 202.72 C 477.70 173.07 466.09 144.28 447.34 120.68 C 437.64 109.41 426.96 98.92 415.18 89.83 C 395.47 75.93 372.31 67.06 348.48 63.56 C 328.96 62.34 309.16 62.82 290.00 67.02 C 276.50 71.18 263.43 76.96 251.45 84.45 C 240.92 91.69 231.99 101.00 223.53 110.50 C 205.48 134.49 193.37 162.66 186.97 191.93 C 184.16 207.54 180.54 223.10 179.85 238.98 C 179.34 244.33 177.77 249.56 177.76 254.96 C 178.89 277.52 177.04 300.18 179.43 322.69 C 182.95 349.88 187.77 377.21 198.37 402.64 C 205.70 417.78 214.74 432.02 224.27 445.87 C 230.45 454.84 239.13 461.59 246.76 469.25 C 254.92 477.33 265.41 482.27 275.39 487.66 C 288.81 494.29 303.36 498.20 317.95 501.23 C 330.63 501.43 343.31 502.04 356.00 501.88 C 371.12 503.17 385.90 498.73 400.17 494.31 C 405.53 492.76 411.28 492.11 416.11 489.10 C 427.65 481.81 440.87 477.31 451.45 468.48 C 460.33 460.72 469.61 453.35 477.56 444.59 C 484.50 437.65 491.39 430.23 495.20 421.05 C 496.82 416.91 494.81 412.63 493.03 408.92 C 485.30 393.69 480.02 377.32 476.31 360.69 C 473.24 340.58 469.14 320.56 469.32 300.13 C 497.21 300.12 525.11 300.31 553.00 300.15 C 559.05 299.71 565.13 299.77 571.15 300.62 C 570.12 316.01 573.77 331.08 574.73 346.36 C 581.74 396.39 600.07 447.13 637.27 482.70 C 662.10 503.97 695.76 512.60 728.00 510.92 C 741.86 512.18 755.46 508.74 768.93 505.98 C 788.30 501.56 807.67 495.34 824.02 483.71 C 824.26 448.14 824.09 412.57 824.18 377.00 C 824.43 365.53 823.42 354.03 821.26 342.76 C 819.30 330.82 807.99 322.21 796.45 320.55 C 784.14 317.91 771.54 317.85 759.01 318.03 C 758.84 313.06 758.83 308.09 758.99 303.13 C 827.64 303.11 896.29 303.13 964.94 303.16 C 964.89 307.64 964.85 312.11 964.71 316.59 C 952.61 318.50 939.90 317.67 928.39 322.40 C 919.02 326.22 912.78 335.64 911.58 345.52 C 906.95 377.81 909.56 410.51 908.82 443.00 C 908.79 460.94 910.87 478.82 910.94 496.77 C 899.86 498.46 888.62 498.68 877.57 500.52 C 846.71 504.89 817.04 515.02 786.36 520.35 C 770.00 523.09 753.63 526.32 737.03 527.13 C 709.97 525.99 682.58 528.94 655.87 523.25 C 635.87 519.93 615.92 515.06 597.44 506.57 C 585.26 500.66 572.88 495.00 561.66 487.36 C 546.21 476.42 531.12 464.62 519.21 449.78 C 516.59 446.43 514.29 442.72 510.91 440.08 C 508.34 441.74 506.41 444.15 504.52 446.51 C 490.49 464.68 473.68 480.65 455.09 494.10 C 449.62 497.94 443.40 500.46 437.50 503.54 C 428.07 508.83 417.26 510.76 407.64 515.66 C 385.84 522.98 362.81 525.65 340.03 528.00 C 301.16 529.43 261.92 524.29 224.95 512.04 C 215.16 507.20 204.46 504.49 194.96 499.01 C 175.88 489.42 157.92 477.35 142.58 462.44 C 136.19 454.19 127.78 447.75 121.88 439.11 C 100.73 410.23 86.54 376.07 82.39 340.45 C 79.96 327.78 76.82 315.01 78.02 301.99 C 79.09 286.57 75.99 270.91 79.51 255.67 C 82.65 234.16 86.34 212.38 95.08 192.33 C 97.15 186.84 98.74 181.07 102.06 176.15 C 107.34 168.57 108.87 159.06 114.66 151.76 C 129.88 126.25 150.74 103.99 175.49 87.53 C 187.36 81.00 198.42 72.92 211.29 68.35 C 226.58 60.32 243.48 56.48 260.06 52.11 Z" />
<path fill="#3a388a" opacity="1.00" d=" M 243.67 218.69 C 244.68 214.01 251.68 210.12 253.93 216.09 C 263.92 237.92 271.30 260.87 281.24 282.73 C 283.27 288.30 288.57 291.21 293.69 293.45 C 280.92 294.49 268.00 294.54 255.23 293.41 C 258.98 291.94 263.83 291.87 266.55 288.58 C 266.55 281.76 263.44 275.31 260.83 269.14 C 259.41 265.08 254.43 265.99 251.04 265.80 C 243.21 266.33 235.29 265.49 227.51 266.52 C 222.82 272.31 220.51 280.16 220.29 287.55 C 223.23 290.00 226.98 291.12 230.51 292.43 C 222.58 293.01 214.62 292.98 206.68 292.61 C 210.98 288.19 215.19 283.49 217.68 277.77 C 226.54 258.16 235.77 238.72 243.67 218.69 M 238.20 239.21 C 235.37 247.34 230.80 254.71 227.81 262.77 C 237.97 262.98 248.14 262.97 258.30 262.76 C 253.69 250.83 249.49 238.69 243.98 227.14 C 241.59 230.93 239.68 234.99 238.20 239.21 Z" />
<path fill="#3a388a" opacity="1.00" d=" M 544.54 215.21 C 548.67 214.13 552.99 212.60 557.31 213.51 C 561.20 216.16 561.04 223.65 556.31 225.41 C 553.29 226.56 549.33 226.51 546.96 224.05 C 545.20 221.46 545.16 218.17 544.54 215.21 Z" />
<path fill="#3a388a" opacity="1.00" d=" M 621.02 214.83 C 628.51 213.59 636.12 214.28 643.64 213.41 C 644.71 224.09 643.70 234.82 644.35 245.51 C 649.31 242.59 653.92 238.20 660.00 237.99 C 665.94 237.75 672.15 237.34 677.90 239.17 C 682.96 242.16 685.95 248.14 686.14 253.94 C 686.45 264.61 685.85 275.30 686.05 285.95 C 685.91 291.00 692.10 291.46 695.45 293.56 C 684.38 294.32 673.19 294.73 662.17 293.21 C 665.70 291.74 669.43 290.59 672.64 288.45 C 673.89 280.04 672.73 271.47 673.19 263.00 C 673.10 256.14 673.65 247.91 668.31 242.72 C 661.49 238.43 652.25 241.45 647.45 247.46 C 643.10 251.41 643.61 257.68 643.83 263.01 C 644.44 272.00 643.85 281.02 644.38 290.03 C 646.87 291.12 649.39 292.16 651.92 293.19 C 641.69 293.20 631.48 292.89 621.24 293.42 C 624.02 292.10 627.00 291.13 629.58 289.41 C 630.59 285.01 629.90 280.45 629.89 275.99 C 629.76 256.58 630.00 237.16 629.78 217.75 C 626.84 216.82 623.91 215.87 621.02 214.83 Z" />
<path fill="#3a388a" opacity="1.00" d=" M 301.60 214.51 C 308.72 213.95 315.87 214.05 323.01 214.13 C 323.34 233.42 322.98 252.71 323.17 272.00 C 323.32 277.71 322.32 283.54 323.62 289.17 C 326.86 290.83 330.26 292.30 333.73 293.44 C 323.41 294.51 312.83 294.74 302.65 292.48 C 305.02 291.76 307.42 291.12 309.84 290.51 C 310.13 267.68 309.62 244.82 309.91 221.98 C 310.81 217.00 304.79 216.41 301.60 214.51 Z" />
<path fill="#3a388a" opacity="1.00" d=" M 594.45 222.42 C 595.51 221.77 596.57 221.12 597.64 220.48 C 598.00 226.60 597.94 232.74 597.92 238.88 C 602.58 239.15 607.25 239.24 611.92 239.23 C 611.88 239.69 611.79 240.63 611.75 241.10 C 607.44 241.04 602.79 240.01 598.71 241.74 C 597.09 247.00 598.05 252.60 597.90 258.00 C 598.20 266.56 597.25 275.18 598.35 283.70 C 598.65 287.80 602.12 291.20 606.14 291.69 C 609.68 291.25 612.60 288.91 615.75 287.41 C 613.35 296.05 603.02 294.43 596.13 293.85 C 591.44 293.77 586.27 291.14 586.33 285.82 C 585.69 271.07 586.47 256.27 586.03 241.50 C 583.21 241.01 580.39 240.55 577.56 240.12 C 582.90 238.04 588.62 235.95 592.47 231.49 C 594.10 228.78 593.96 225.45 594.45 222.42 Z" />
<path fill="#3a388a" opacity="1.00" d=" M 350.74 242.71 C 357.58 237.23 366.90 235.96 375.31 237.74 C 384.08 239.47 393.07 238.60 401.88 239.85 C 397.58 241.17 393.14 241.96 388.70 242.66 C 390.71 245.89 393.18 248.94 394.34 252.61 C 396.08 260.47 391.92 269.37 384.29 272.37 C 375.00 277.01 364.43 273.93 354.63 275.62 C 353.02 278.40 353.13 281.73 352.83 284.83 C 362.13 286.82 371.61 286.03 381.02 285.92 C 387.47 286.27 395.92 285.94 399.31 292.69 C 403.73 299.18 399.45 307.61 393.62 311.54 C 383.49 317.76 370.98 318.03 359.52 316.45 C 353.09 315.65 346.10 313.00 342.66 307.17 C 339.98 301.31 347.15 297.84 350.33 294.09 C 347.61 291.36 343.63 289.09 342.93 285.00 C 343.63 279.49 350.42 278.16 352.84 273.81 C 352.20 269.78 347.40 267.96 345.60 264.39 C 341.97 257.19 344.29 247.56 350.74 242.71 M 365.49 239.46 C 362.03 240.51 358.27 243.10 358.26 247.11 C 357.82 252.97 357.77 258.90 358.39 264.75 C 359.55 275.81 379.58 275.90 380.86 264.85 C 381.55 259.36 381.47 253.74 380.72 248.26 C 379.99 241.32 371.70 237.59 365.49 239.46 M 355.51 295.53 C 350.80 298.01 349.43 305.75 353.68 309.39 C 361.05 316.75 372.56 315.56 381.96 313.98 C 388.16 313.27 393.77 306.88 391.64 300.58 C 388.60 295.10 381.53 294.99 376.04 295.02 C 369.20 295.34 362.28 294.42 355.51 295.53 Z" />
<path fill="#3a388a" opacity="1.00" d=" M 433.36 237.36 C 441.11 235.72 449.29 237.45 456.41 240.66 C 469.16 246.64 473.88 263.38 469.08 276.03 C 466.85 284.92 458.45 290.12 450.62 293.60 C 438.31 297.71 423.25 294.30 414.88 284.09 C 409.05 276.83 409.65 266.89 410.33 258.17 C 412.02 246.80 422.86 239.63 433.36 237.36 M 433.39 240.53 C 428.11 242.14 426.15 248.12 424.92 252.94 C 422.96 264.35 422.55 277.11 428.67 287.40 C 431.99 293.41 440.06 292.26 445.78 291.63 C 452.22 290.73 454.76 283.99 455.44 278.34 C 457.91 267.83 456.49 256.85 453.32 246.66 C 450.88 238.32 440.12 239.24 433.39 240.53 Z" />
<path fill="#3a388a" opacity="1.00" d=" M 480.52 238.44 C 487.92 237.60 495.37 237.67 502.77 238.33 C 502.51 241.72 502.38 245.12 502.30 248.53 C 507.54 244.54 511.95 238.37 519.06 237.89 C 523.52 237.37 530.10 237.27 531.48 242.72 C 533.98 247.42 527.84 250.28 523.97 250.08 C 519.45 250.38 517.45 245.67 515.14 242.67 C 508.62 245.48 502.07 251.10 502.85 258.93 C 503.83 268.74 502.23 278.65 503.41 288.39 C 506.40 290.70 510.07 291.86 513.44 293.49 C 503.24 292.88 493.02 292.69 482.80 292.80 C 485.07 291.43 487.55 290.31 489.45 288.41 C 490.63 278.01 489.40 267.46 489.89 257.00 C 489.84 252.37 490.85 247.49 489.22 243.03 C 486.64 240.97 483.55 239.69 480.52 238.44 Z" />
<path fill="#3a388a" opacity="1.00" d=" M 538.67 238.84 C 545.38 238.09 552.14 237.61 558.90 238.08 C 559.47 254.96 559.18 271.86 558.91 288.75 C 561.28 290.12 563.66 291.50 566.02 292.91 C 556.11 292.69 546.16 293.31 536.27 292.33 C 539.41 291.12 542.80 290.35 545.64 288.48 C 546.68 280.37 545.40 272.15 545.80 264.00 C 545.61 257.22 547.05 250.31 545.57 243.63 C 543.79 241.40 541.03 240.32 538.67 238.84 Z" />
<path fill="#3a388a" opacity="1.00" d=" M 702.57 239.88 C 709.45 238.25 716.54 237.75 723.60 238.03 C 724.07 241.12 724.51 244.21 725.01 247.30 C 729.76 243.87 733.90 238.68 740.13 238.13 C 745.40 237.55 750.87 237.55 755.99 239.03 C 759.84 240.24 760.18 245.79 763.92 246.87 C 768.52 244.72 771.35 239.65 776.52 238.60 C 782.32 237.50 788.42 237.42 794.17 238.90 C 799.43 240.43 802.54 245.86 802.94 251.08 C 803.90 263.53 802.37 276.09 803.47 288.52 C 806.34 290.95 810.04 292.02 813.41 293.59 C 802.72 294.32 791.93 294.63 781.27 293.35 C 784.07 291.71 786.92 290.17 789.80 288.68 C 789.98 276.78 789.78 264.88 790.06 252.99 C 789.67 249.03 789.96 243.01 785.05 241.86 C 776.15 238.27 766.38 245.65 764.02 254.08 C 763.79 264.98 764.15 275.94 764.23 286.86 C 763.38 291.66 772.14 289.90 771.54 293.80 C 761.73 294.35 751.79 294.63 742.04 293.17 C 744.97 291.51 747.97 290.00 751.00 288.52 C 750.70 273.16 752.97 257.37 748.44 242.42 C 742.59 240.75 735.51 239.93 731.13 245.15 C 724.57 250.01 724.32 258.61 725.03 266.01 C 725.84 273.65 723.76 281.56 725.74 289.04 C 728.57 290.77 731.56 292.32 734.72 293.41 C 724.00 294.43 713.10 294.64 702.40 293.36 C 705.16 292.01 707.97 290.78 710.75 289.49 C 710.98 273.54 711.08 257.59 710.69 241.64 C 707.97 241.12 705.26 240.53 702.57 239.88 Z" />
<path fill="#3a388a" opacity="1.00" d=" M 825.37 259.66 C 820.80 251.32 826.62 239.37 836.18 238.20 C 845.02 237.15 853.96 238.16 862.85 237.98 C 863.18 243.64 863.20 249.30 862.80 254.95 C 861.66 255.01 860.54 254.96 859.43 254.80 C 858.68 249.87 858.83 242.83 852.99 241.05 C 845.53 238.62 832.64 238.56 831.87 248.90 C 837.11 259.13 850.81 259.27 859.46 265.53 C 868.55 270.40 868.13 284.52 860.56 290.57 C 855.58 295.29 848.23 294.07 841.98 294.20 C 836.26 293.88 830.31 294.91 824.75 293.29 C 822.83 287.82 824.21 281.68 824.19 275.96 C 825.27 276.14 826.36 276.35 827.45 276.56 C 828.49 282.39 830.25 289.44 836.87 291.09 C 844.54 293.93 858.34 292.77 858.57 282.29 C 852.27 268.83 833.16 271.66 825.37 259.66 Z" />
</g>
<g id="#ffffffff">
<path fill="#ffffff" opacity="1.00" d=" M 0.41 0.00 L 1044.00 0.00 L 1044.00 592.00 L 0.00 592.00 L 0.00 0.41 C 0.10 0.31 0.31 0.10 0.41 0.00 M 260.06 52.11 C 243.48 56.48 226.58 60.32 211.29 68.35 C 198.42 72.92 187.36 81.00 175.49 87.53 C 150.74 103.99 129.88 126.25 114.66 151.76 C 108.87 159.06 107.34 168.57 102.06 176.15 C 98.74 181.07 97.15 186.84 95.08 192.33 C 86.34 212.38 82.65 234.16 79.51 255.67 C 75.99 270.91 79.09 286.57 78.02 301.99 C 76.82 315.01 79.96 327.78 82.39 340.45 C 86.54 376.07 100.73 410.23 121.88 439.11 C 127.78 447.75 136.19 454.19 142.58 462.44 C 157.92 477.35 175.88 489.42 194.96 499.01 C 204.46 504.49 215.16 507.20 224.95 512.04 C 261.92 524.29 301.16 529.43 340.03 528.00 C 362.81 525.65 385.84 522.98 407.64 515.66 C 417.26 510.76 428.07 508.83 437.50 503.54 C 443.40 500.46 449.62 497.94 455.09 494.10 C 473.68 480.65 490.49 464.68 504.52 446.51 C 506.41 444.15 508.34 441.74 510.91 440.08 C 514.29 442.72 516.59 446.43 519.21 449.78 C 531.12 464.62 546.21 476.42 561.66 487.36 C 572.88 495.00 585.26 500.66 597.44 506.57 C 615.92 515.06 635.87 519.93 655.87 523.25 C 682.58 528.94 709.97 525.99 737.03 527.13 C 753.63 526.32 770.00 523.09 786.36 520.35 C 817.04 515.02 846.71 504.89 877.57 500.52 C 888.62 498.68 899.86 498.46 910.94 496.77 C 910.87 478.82 908.79 460.94 908.82 443.00 C 909.56 410.51 906.95 377.81 911.58 345.52 C 912.78 335.64 919.02 326.22 928.39 322.40 C 939.90 317.67 952.61 318.50 964.71 316.59 C 964.85 312.11 964.89 307.64 964.94 303.16 C 896.29 303.13 827.64 303.11 758.99 303.13 C 758.83 308.09 758.84 313.06 759.01 318.03 C 771.54 317.85 784.14 317.91 796.45 320.55 C 807.99 322.21 819.30 330.82 821.26 342.76 C 823.42 354.03 824.43 365.53 824.18 377.00 C 824.09 412.57 824.26 448.14 824.02 483.71 C 807.67 495.34 788.30 501.56 768.93 505.98 C 755.46 508.74 741.86 512.18 728.00 510.92 C 695.76 512.60 662.10 503.97 637.27 482.70 C 600.07 447.13 581.74 396.39 574.73 346.36 C 573.77 331.08 570.12 316.01 571.15 300.62 C 565.13 299.77 559.05 299.71 553.00 300.15 C 525.11 300.31 497.21 300.12 469.32 300.13 C 469.14 320.56 473.24 340.58 476.31 360.69 C 480.02 377.32 485.30 393.69 493.03 408.92 C 494.81 412.63 496.82 416.91 495.20 421.05 C 491.39 430.23 484.50 437.65 477.56 444.59 C 469.61 453.35 460.33 460.72 451.45 468.48 C 440.87 477.31 427.65 481.81 416.11 489.10 C 411.28 492.11 405.53 492.76 400.17 494.31 C 385.90 498.73 371.12 503.17 356.00 501.88 C 343.31 502.04 330.63 501.43 317.95 501.23 C 303.36 498.20 288.81 494.29 275.39 487.66 C 265.41 482.27 254.92 477.33 246.76 469.25 C 239.13 461.59 230.45 454.84 224.27 445.87 C 214.74 432.02 205.70 417.78 198.37 402.64 C 187.77 377.21 182.95 349.88 179.43 322.69 C 177.04 300.18 178.89 277.52 177.76 254.96 C 177.77 249.56 179.34 244.33 179.85 238.98 C 180.54 223.10 184.16 207.54 186.97 191.93 C 193.37 162.66 205.48 134.49 223.53 110.50 C 231.99 101.00 240.92 91.69 251.45 84.45 C 263.43 76.96 276.50 71.18 290.00 67.02 C 309.16 62.82 328.96 62.34 348.48 63.56 C 372.31 67.06 395.47 75.93 415.18 89.83 C 426.96 98.92 437.64 109.41 447.34 120.68 C 466.09 144.28 477.70 173.07 482.54 202.72 C 498.69 203.20 514.87 202.28 530.97 204.05 C 546.11 203.76 561.27 203.98 576.42 203.72 C 581.54 182.69 588.08 161.92 597.43 142.36 C 604.76 125.87 614.94 110.52 628.18 98.18 C 647.42 78.04 674.46 67.02 701.75 63.56 C 713.54 60.23 725.84 60.45 737.96 61.17 C 766.26 64.87 794.81 73.63 817.44 91.58 C 823.87 97.11 829.93 103.07 836.04 108.95 C 848.34 122.17 857.44 138.10 864.16 154.80 C 870.34 168.46 872.75 183.35 876.32 197.80 C 884.14 198.03 891.96 197.94 899.79 197.75 C 899.93 150.77 899.81 103.80 899.86 56.83 C 886.84 60.08 873.70 63.70 860.19 63.86 C 830.84 62.09 802.44 53.81 773.43 49.54 C 753.61 45.03 733.16 46.35 713.00 46.13 C 693.87 45.13 674.75 47.98 656.08 51.96 C 646.78 53.77 638.14 57.87 628.86 59.74 C 613.70 62.95 599.94 70.36 586.19 77.21 C 564.24 89.59 544.04 105.46 527.94 124.93 C 521.06 131.48 516.51 140.33 508.51 145.68 C 507.52 117.35 508.91 88.96 507.85 60.63 C 499.30 61.09 491.62 65.32 483.18 66.27 C 470.67 67.51 457.94 67.33 445.70 64.28 C 434.37 62.69 423.25 60.14 412.37 56.63 C 391.00 52.66 369.83 46.87 348.02 45.86 C 337.02 46.16 326.01 46.31 315.01 46.09 C 296.47 44.89 278.24 49.26 260.06 52.11 M 243.67 218.69 C 235.77 238.72 226.54 258.16 217.68 277.77 C 215.19 283.49 210.98 288.19 206.68 292.61 C 214.62 292.98 222.58 293.01 230.51 292.43 C 226.98 291.12 223.23 290.00 220.29 287.55 C 220.51 280.16 222.82 272.31 227.51 266.52 C 235.29 265.49 243.21 266.33 251.04 265.80 C 254.43 265.99 259.41 265.08 260.83 269.14 C 263.44 275.31 266.55 281.76 266.55 288.58 C 263.83 291.87 258.98 291.94 255.23 293.41 C 268.00 294.54 280.92 294.49 293.69 293.45 C 288.57 291.21 283.27 288.30 281.24 282.73 C 271.30 260.87 263.92 237.92 253.93 216.09 C 251.68 210.12 244.68 214.01 243.67 218.69 M 544.54 215.21 C 545.16 218.17 545.20 221.46 546.96 224.05 C 549.33 226.51 553.29 226.56 556.31 225.41 C 561.04 223.65 561.20 216.16 557.31 213.51 C 552.99 212.60 548.67 214.13 544.54 215.21 M 621.02 214.83 C 623.91 215.87 626.84 216.82 629.78 217.75 C 630.00 237.16 629.76 256.58 629.89 275.99 C 629.90 280.45 630.59 285.01 629.58 289.41 C 627.00 291.13 624.02 292.10 621.24 293.42 C 631.48 292.89 641.69 293.20 651.92 293.19 C 649.39 292.16 646.87 291.12 644.38 290.03 C 643.85 281.02 644.44 272.00 643.83 263.01 C 643.61 257.68 643.10 251.41 647.45 247.46 C 652.25 241.45 661.49 238.43 668.31 242.72 C 673.65 247.91 673.10 256.14 673.19 263.00 C 672.73 271.47 673.89 280.04 672.64 288.45 C 669.43 290.59 665.70 291.74 662.17 293.21 C 673.19 294.73 684.38 294.32 695.45 293.56 C 692.10 291.46 685.91 291.00 686.05 285.95 C 685.85 275.30 686.45 264.61 686.14 253.94 C 685.95 248.14 682.96 242.16 677.90 239.17 C 672.15 237.34 665.94 237.75 660.00 237.99 C 653.92 238.20 649.31 242.59 644.35 245.51 C 643.70 234.82 644.71 224.09 643.64 213.41 C 636.12 214.28 628.51 213.59 621.02 214.83 M 301.60 214.51 C 304.79 216.41 310.81 217.00 309.91 221.98 C 309.62 244.82 310.13 267.68 309.84 290.51 C 307.42 291.12 305.02 291.76 302.65 292.48 C 312.83 294.74 323.41 294.51 333.73 293.44 C 330.26 292.30 326.86 290.83 323.62 289.17 C 322.32 283.54 323.32 277.71 323.17 272.00 C 322.98 252.71 323.34 233.42 323.01 214.13 C 315.87 214.05 308.72 213.95 301.60 214.51 M 594.45 222.42 C 593.96 225.45 594.10 228.78 592.47 231.49 C 588.62 235.95 582.90 238.04 577.56 240.12 C 580.39 240.55 583.21 241.01 586.03 241.50 C 586.47 256.27 585.69 271.07 586.33 285.82 C 586.27 291.14 591.44 293.77 596.13 293.85 C 603.02 294.43 613.35 296.05 615.75 287.41 C 612.60 288.91 609.68 291.25 606.14 291.69 C 602.12 291.20 598.65 287.80 598.35 283.70 C 597.25 275.18 598.20 266.56 597.90 258.00 C 598.05 252.60 597.09 247.00 598.71 241.74 C 602.79 240.01 607.44 241.04 611.75 241.10 C 611.79 240.63 611.88 239.69 611.92 239.23 C 607.25 239.24 602.58 239.15 597.92 238.88 C 597.94 232.74 598.00 226.60 597.64 220.48 C 596.57 221.12 595.51 221.77 594.45 222.42 M 350.74 242.71 C 344.29 247.56 341.97 257.19 345.60 264.39 C 347.40 267.96 352.20 269.78 352.84 273.81 C 350.42 278.16 343.63 279.49 342.93 285.00 C 343.63 289.09 347.61 291.36 350.33 294.09 C 347.15 297.84 339.98 301.31 342.66 307.17 C 346.10 313.00 353.09 315.65 359.52 316.45 C 370.98 318.03 383.49 317.76 393.62 311.54 C 399.45 307.61 403.73 299.18 399.31 292.69 C 395.92 285.94 387.47 286.27 381.02 285.92 C 371.61 286.03 362.13 286.82 352.83 284.83 C 353.13 281.73 353.02 278.40 354.63 275.62 C 364.43 273.93 375.00 277.01 384.29 272.37 C 391.92 269.37 396.08 260.47 394.34 252.61 C 393.18 248.94 390.71 245.89 388.70 242.66 C 393.14 241.96 397.58 241.17 401.88 239.85 C 393.07 238.60 384.08 239.47 375.31 237.74 C 366.90 235.96 357.58 237.23 350.74 242.71 M 433.36 237.36 C 422.86 239.63 412.02 246.80 410.33 258.17 C 409.65 266.89 409.05 276.83 414.88 284.09 C 423.25 294.30 438.31 297.71 450.62 293.60 C 458.45 290.12 466.85 284.92 469.08 276.03 C 473.88 263.38 469.16 246.64 456.41 240.66 C 449.29 237.45 441.11 235.72 433.36 237.36 M 480.52 238.44 C 483.55 239.69 486.64 240.97 489.22 243.03 C 490.85 247.49 489.84 252.37 489.89 257.00 C 489.40 267.46 490.63 278.01 489.45 288.41 C 487.55 290.31 485.07 291.43 482.80 292.80 C 493.02 292.69 503.24 292.88 513.44 293.49 C 510.07 291.86 506.40 290.70 503.41 288.39 C 502.23 278.65 503.83 268.74 502.85 258.93 C 502.07 251.10 508.62 245.48 515.14 242.67 C 517.45 245.67 519.45 250.38 523.97 250.08 C 527.84 250.28 533.98 247.42 531.48 242.72 C 530.10 237.27 523.52 237.37 519.06 237.89 C 511.95 238.37 507.54 244.54 502.30 248.53 C 502.38 245.12 502.51 241.72 502.77 238.33 C 495.37 237.67 487.92 237.60 480.52 238.44 M 538.67 238.84 C 541.03 240.32 543.79 241.40 545.57 243.63 C 547.05 250.31 545.61 257.22 545.80 264.00 C 545.40 272.15 546.68 280.37 545.64 288.48 C 542.80 290.35 539.41 291.12 536.27 292.33 C 546.16 293.31 556.11 292.69 566.02 292.91 C 563.66 291.50 561.28 290.12 558.91 288.75 C 559.18 271.86 559.47 254.96 558.90 238.08 C 552.14 237.61 545.38 238.09 538.67 238.84 M 702.57 239.88 C 705.26 240.53 707.97 241.12 710.69 241.64 C 711.08 257.59 710.98 273.54 710.75 289.49 C 707.97 290.78 705.16 292.01 702.40 293.36 C 713.10 294.64 724.00 294.43 734.72 293.41 C 731.56 292.32 728.57 290.77 725.74 289.04 C 723.76 281.56 725.84 273.65 725.03 266.01 C 724.32 258.61 724.57 250.01 731.13 245.15 C 735.51 239.93 742.59 240.75 748.44 242.42 C 752.97 257.37 750.70 273.16 751.00 288.52 C 747.97 290.00 744.97 291.51 742.04 293.17 C 751.79 294.63 761.73 294.35 771.54 293.80 C 772.14 289.90 763.38 291.66 764.23 286.86 C 764.15 275.94 763.79 264.98 764.02 254.08 C 766.38 245.65 776.15 238.27 785.05 241.86 C 789.96 243.01 789.67 249.03 790.06 252.99 C 789.78 264.88 789.98 276.78 789.80 288.68 C 786.92 290.17 784.07 291.71 781.27 293.35 C 791.93 294.63 802.72 294.32 813.41 293.59 C 810.04 292.02 806.34 290.95 803.47 288.52 C 802.37 276.09 803.90 263.53 802.94 251.08 C 802.54 245.86 799.43 240.43 794.17 238.90 C 788.42 237.42 782.32 237.50 776.52 238.60 C 771.35 239.65 768.52 244.72 763.92 246.87 C 760.18 245.79 759.84 240.24 755.99 239.03 C 750.87 237.55 745.40 237.55 740.13 238.13 C 733.90 238.68 729.76 243.87 725.01 247.30 C 724.51 244.21 724.07 241.12 723.60 238.03 C 716.54 237.75 709.45 238.25 702.57 239.88 M 825.37 259.66 C 833.16 271.66 852.27 268.83 858.57 282.29 C 858.34 292.77 844.54 293.93 836.87 291.09 C 830.25 289.44 828.49 282.39 827.45 276.56 C 826.36 276.35 825.27 276.14 824.19 275.96 C 824.21 281.68 822.83 287.82 824.75 293.29 C 830.31 294.91 836.26 293.88 841.98 294.20 C 848.23 294.07 855.58 295.29 860.56 290.57 C 868.13 284.52 868.55 270.40 859.46 265.53 C 850.81 259.27 837.11 259.13 831.87 248.90 C 832.64 238.56 845.53 238.62 852.99 241.05 C 858.83 242.83 858.68 249.87 859.43 254.80 C 860.54 254.96 861.66 255.01 862.80 254.95 C 863.20 249.30 863.18 243.64 862.85 237.98 C 853.96 238.16 845.02 237.15 836.18 238.20 C 826.62 239.37 820.80 251.32 825.37 259.66 Z" />
<path fill="#ffffff" opacity="1.00" d=" M 238.20 239.21 C 239.68 234.99 241.59 230.93 243.98 227.14 C 249.49 238.69 253.69 250.83 258.30 262.76 C 248.14 262.97 237.97 262.98 227.81 262.77 C 230.80 254.71 235.37 247.34 238.20 239.21 Z" />
<path fill="#ffffff" opacity="1.00" d=" M 365.49 239.46 C 371.70 237.59 379.99 241.32 380.72 248.26 C 381.47 253.74 381.55 259.36 380.86 264.85 C 379.58 275.90 359.55 275.81 358.39 264.75 C 357.77 258.90 357.82 252.97 358.26 247.11 C 358.27 243.10 362.03 240.51 365.49 239.46 Z" />
<path fill="#ffffff" opacity="1.00" d=" M 433.39 240.53 C 440.12 239.24 450.88 238.32 453.32 246.66 C 456.49 256.85 457.91 267.83 455.44 278.34 C 454.76 283.99 452.22 290.73 445.78 291.63 C 440.06 292.26 431.99 293.41 428.67 287.40 C 422.55 277.11 422.96 264.35 424.92 252.94 C 426.15 248.12 428.11 242.14 433.39 240.53 Z" />
<path fill="#ffffff" opacity="1.00" d=" M 355.51 295.53 C 362.28 294.42 369.20 295.34 376.04 295.02 C 381.53 294.99 388.60 295.10 391.64 300.58 C 393.77 306.88 388.16 313.27 381.96 313.98 C 372.56 315.56 361.05 316.75 353.68 309.39 C 349.43 305.75 350.80 298.01 355.51 295.53 Z" />
</g>
</svg>
